<svg xmlns="http://www.w3.org/2000/svg" viewBox="0 0 256 256">
  <defs>
    <linearGradient id="g" x1="0" y1="0" x2="1" y2="1">
      <stop offset="0" stop-color="#6366f1"/>
      <stop offset="1" stop-color="#22c55e"/>
    </linearGradient>
  </defs>
  <rect width="256" height="256" rx="56" fill="#0b1220"/>
  <rect x="22" y="22" width="212" height="212" rx="48" fill="url(#g)" opacity="0.18"/>
  <path fill="url(#g)" d="M128 34c45.3 0 82 36.7 82 82 0 56.8-82 140-82 140S46 172.8 46 116c0-45.3 36.7-82 82-82zm0 52a30 30 0 1 0 0 60 30 30 0 0 0 0-60z"/>
  <path fill="#ffffff" opacity="0.92" d="M160.6 176.4c-10.9 10.9-22.2 23.1-32.6 35.8-10.4-12.7-21.7-24.9-32.6-35.8 9.8-5.2 20.9-8.1 32.6-8.1s22.8 2.9 32.6 8.1z"/>
</svg>
