<svg xmlns="http://www.w3.org/2000/svg" width="64" height="64" viewBox="0 0 64 64">
  <defs>
    <radialGradient id="bg" cx="20%" cy="90%" r="90%">
      <stop offset="0%" stop-color="#2f4c86" />
      <stop offset="55%" stop-color="#1f2655" />
      <stop offset="100%" stop-color="#14163a" />
    </radialGradient>
    <linearGradient id="stroke" x1="10%" y1="15%" x2="90%" y2="85%">
      <stop offset="0%" stop-color="#32d4ff" />
      <stop offset="55%" stop-color="#7a4bff" />
      <stop offset="100%" stop-color="#ff4b62" />
    </linearGradient>
    <filter id="soft" x="-30%" y="-30%" width="160%" height="160%">
      <feGaussianBlur stdDeviation="0.75" />
    </filter>
  </defs>

  <rect width="64" height="64" rx="14" fill="url(#bg)" />

  <path
    d="M46 18c-4-4.2-10.1-6.2-16-5.2c-4.6.8-8.5 3.6-9.8 7.1c-1.3 3.5.2 7.2 4 9.6c2.2 1.4 5.3 2.2 8.2 2.9c3.2.8 6.1 1.5 7.7 2.6c2.1 1.5 2.9 3.4 2.2 5.2c-.9 2.4-4.2 4.4-8.3 4.9c-5.2.7-10.8-1.2-14.2-4.9"
    fill="none"
    stroke="url(#stroke)"
    stroke-width="6"
    stroke-linecap="round"
    stroke-linejoin="round"
  />

  <path
    d="M50 17c-4.7-5.4-12.6-7.7-20.1-6.4c-6 1-11 4.8-12.8 9.7c-1.9 5 0.3 10.1 5.3 13.2c2.7 1.7 6.1 2.6 9.2 3.4c3 .7 5.6 1.4 6.8 2.2c.9.7 1.2 1.3 1 2c-.4 1.1-2.3 2.1-4.8 2.4c-4.2.6-8.7-.9-11.7-3.9"
    fill="none"
    stroke="rgba(255,255,255,0.18)"
    stroke-width="3"
    stroke-linecap="round"
    stroke-linejoin="round"
    filter="url(#soft)"
  />

  <circle cx="45" cy="18" r="3" fill="#bdf4ff" opacity="0.9" />
  <circle cx="18" cy="43" r="2.2" fill="#c9d2ff" opacity="0.6" />
</svg>
